<?xml version="1.0" encoding="UTF-8" standalone="no"?>
<!DOCTYPE svg PUBLIC "-//W3C//DTD SVG 1.1//EN"
 "http://www.w3.org/Graphics/SVG/1.1/DTD/svg11.dtd">
<!-- Generated by graphviz version 2.40.1 (20161225.0304)
 -->
<!-- Title: test Pages: 1 -->
<svg width="252pt" height="118pt"
 viewBox="0.00 0.00 252.00 118.32" xmlns="http://www.w3.org/2000/svg" xmlns:xlink="http://www.w3.org/1999/xlink">
<g id="graph0" class="graph" transform="scale(.7683 .7683) rotate(0) translate(4 150)">
<title>test</title>
<polygon fill="#ffffff" stroke="transparent" points="-4,4 -4,-150 324,-150 324,4 -4,4"/>
<g id="clust1" class="cluster">
<title>cluster_legend</title>
<polygon fill="none" stroke="#000000" points="8,-8 8,-138 312,-138 312,-8 8,-8"/>
<text text-anchor="middle" x="160" y="-122.8" font-family="Times,serif" font-size="14.00" fill="#000000">Key</text>
</g>
<g id="clust2" class="cluster">
<title>cluster_exit_l</title>
<polygon fill="none" stroke="#000000" stroke-width="0" points="238,-16 238,-92 304,-92 304,-16 238,-16"/>
<text text-anchor="middle" x="271" y="-76.8" font-family="Times,serif" font-size="14.00" fill="#000000">Exit</text>
<text text-anchor="middle" x="271" y="-61.8" font-family="Times,serif" font-size="14.00" fill="#000000">Middle</text>
</g>
<g id="clust3" class="cluster">
<title>cluster_middle_l</title>
<polygon fill="none" stroke="#000000" stroke-width="0" points="164,-16 164,-77 230,-77 230,-16 164,-16"/>
<text text-anchor="middle" x="197" y="-61.8" font-family="Times,serif" font-size="14.00" fill="#000000">Middle</text>
</g>
<g id="clust5" class="cluster">
<title>cluster_gu_ex_l</title>
<polygon fill="none" stroke="#000000" stroke-width="0" points="90,-16 90,-107 156,-107 156,-16 90,-16"/>
<text text-anchor="middle" x="123" y="-91.8" font-family="Times,serif" font-size="14.00" fill="#000000">Guard</text>
<text text-anchor="middle" x="123" y="-76.8" font-family="Times,serif" font-size="14.00" fill="#000000">Exit</text>
<text text-anchor="middle" x="123" y="-61.8" font-family="Times,serif" font-size="14.00" fill="#000000">Middle</text>
</g>
<g id="clust6" class="cluster">
<title>cluster_guard_l</title>
<polygon fill="none" stroke="#000000" stroke-width="0" points="16,-16 16,-92 82,-92 82,-16 16,-16"/>
<text text-anchor="middle" x="49" y="-76.8" font-family="Times,serif" font-size="14.00" fill="#000000">Guard</text>
<text text-anchor="middle" x="49" y="-61.8" font-family="Times,serif" font-size="14.00" fill="#000000">Middle</text>
</g>
<!-- EX -->
<g id="node1" class="node">
<title>EX</title>
<polygon fill="#228b22" stroke="#000000" points="282,-46 260,-46 260,-24 282,-24 282,-46"/>
</g>
<!-- MI -->
<g id="node2" class="node">
<title>MI</title>
<ellipse fill="#1e90ff" stroke="#000000" cx="197" cy="-35" rx="11" ry="11"/>
</g>
<!-- EX_MI -->
<g id="node3" class="node">
<title>EX_MI</title>
<polygon fill="#7cfc00" stroke="#000000" points="134,-46 112,-46 112,-24 134,-24 134,-46"/>
</g>
<!-- GU -->
<g id="node4" class="node">
<title>GU</title>
<ellipse fill="#ee6a50" stroke="#000000" cx="49" cy="-35" rx="11" ry="11"/>
</g>
</g>
</svg>
